<svg width="50" height="30" viewBox="0 0 50 30" fill="none" xmlns="http://www.w3.org/2000/svg">
<path d="M29.875 17.5H20.1289C17.9492 17.5 16.1836 15.7344 16.1836 13.5547V13.2578C16.1836 11.0781 17.9492 9.3125 20.1289 9.3125H29.875C32.0547 9.3125 33.8203 11.0781 33.8203 13.2578V13.5547C33.8203 15.7305 32.0547 17.5 29.875 17.5Z" stroke="black" stroke-width="1.5" stroke-miterlimit="10"/>
<path d="M16.1836 13.2578V19.6914C16.1836 19.6914 17.2383 23.4453 19.9375 20.5781C22.6367 17.7109 22.8711 17.5 22.8711 17.5H20.125C20.125 17.5 18.1054 17.6406 16.8008 15.6875C16.8047 15.6836 16.1289 14.7578 16.1836 13.2578Z" fill="#E2E6E9"/>
<path d="M33.8164 13.2578V19.6914C33.8164 19.6914 32.7617 23.4453 30.0625 20.5781C27.3633 17.7109 27.125 17.5 27.125 17.5H29.8711C29.8711 17.5 31.8906 17.6406 33.1953 15.6875C33.1953 15.6836 33.8711 14.7578 33.8164 13.2578Z" fill="#E2E6E9"/>
<path d="M16.1836 13.2578V19.6914C16.1836 19.6914 17.2383 23.4453 19.9375 20.5781C22.6367 17.7109 22.8711 17.5 22.8711 17.5H20.125C20.125 17.5 18.1054 17.6406 16.8008 15.6875C16.8047 15.6836 16.1289 14.7578 16.1836 13.2578Z" stroke="black" stroke-width="1.5" stroke-miterlimit="10"/>
<path d="M33.8164 13.2578V19.6914C33.8164 19.6914 32.7617 23.4453 30.0625 20.5781C27.3633 17.7109 27.125 17.5 27.125 17.5H29.8711C29.8711 17.5 31.8906 17.6406 33.1953 15.6875C33.1953 15.6836 33.8711 14.7578 33.8164 13.2578Z" stroke="black" stroke-width="1.5" stroke-miterlimit="10"/>
<path d="M29.3945 15.5586C30.456 15.5586 31.3164 14.6981 31.3164 13.6367C31.3164 12.5753 30.456 11.7148 29.3945 11.7148C28.3331 11.7148 27.4727 12.5753 27.4727 13.6367C27.4727 14.6981 28.3331 15.5586 29.3945 15.5586Z" stroke="#232730" stroke-width="1.5" stroke-miterlimit="10"/>
<path d="M18.9688 13.1953H20.4492V11.7148H21.3398V13.1953H22.8203V14.0859H21.3398V15.5703H20.4492V14.0859H18.9688V13.1953Z" stroke="#232730" stroke-width="1.5" stroke-miterlimit="10"/>
</svg>
