<svg width="50" height="30" viewBox="0 0 50 30" fill="none" xmlns="http://www.w3.org/2000/svg">
<path d="M0 15C0 6.71573 6.71573 0 15 0H35C43.2843 0 50 6.71573 50 15C50 23.2843 43.2843 30 35 30H15C6.71573 30 0 23.2843 0 15Z" fill="#0050FF" fill-opacity="0.02"/>
<path d="M18.3711 17.1836C19.5857 17.1836 20.5703 16.199 20.5703 14.9844C20.5703 13.7698 19.5857 12.7852 18.3711 12.7852C17.1565 12.7852 16.1719 13.7698 16.1719 14.9844C16.1719 16.199 17.1565 17.1836 18.3711 17.1836Z" fill="#E2F4FF" stroke="#0050FF" stroke-width="1.5" stroke-miterlimit="10"/>
<path d="M24.9883 17.1836C26.2029 17.1836 27.1875 16.199 27.1875 14.9844C27.1875 13.7698 26.2029 12.7852 24.9883 12.7852C23.7737 12.7852 22.7891 13.7698 22.7891 14.9844C22.7891 16.199 23.7737 17.1836 24.9883 17.1836Z" fill="#E2F4FF" stroke="#0050FF" stroke-width="1.5" stroke-miterlimit="10"/>
<path d="M31.6055 17.1836C32.8201 17.1836 33.8047 16.199 33.8047 14.9844C33.8047 13.7698 32.8201 12.7852 31.6055 12.7852C30.3909 12.7852 29.4062 13.7698 29.4062 14.9844C29.4062 16.199 30.3909 17.1836 31.6055 17.1836Z" fill="#E2F4FF" stroke="#0050FF" stroke-width="1.5" stroke-miterlimit="10"/>
</svg>
