<svg width="50" height="30" viewBox="0 0 50 30" fill="none" xmlns="http://www.w3.org/2000/svg">
<path d="M33.6367 12.0078V19.8047C33.6367 20.8828 32.7617 21.7578 31.6836 21.7578H26.9961C26.9961 21.7578 25.0195 23.6406 22.7422 21.7578H17.957C16.8789 21.7578 16.0039 20.8828 16.0039 19.8047V12.0078C16.0039 10.9297 16.8789 10.0547 17.957 10.0547H18.4336C18.4336 13.4609 18.4336 18.6445 18.4336 18.6445C18.4336 18.6445 23.4727 18.8945 24.8203 19.7578C24.8203 19.7578 26.6719 18.3945 31.207 18.6445V10.0547H31.6836C32.7617 10.0547 33.6367 10.9297 33.6367 12.0078Z" fill="#E2E6E9"/>
<path d="M31.207 10.0547H31.6836C32.7617 10.0547 33.6367 10.9297 33.6367 12.0078V19.8047C33.6367 20.8828 32.7617 21.7578 31.6836 21.7578H26.9922C26.9922 21.7578 25.0156 23.6406 22.7383 21.7578H17.957C16.8789 21.7578 16.0039 20.8828 16.0039 19.8047V12.0078C16.0039 10.9297 16.8789 10.0547 17.957 10.0547H18.4336" stroke="#232730" stroke-width="1.5" stroke-miterlimit="10"/>
<path d="M24.8203 19.7578C24.8203 19.7578 26.668 18.3945 31.207 18.6445C31.207 16.5312 31.207 7.39063 31.207 7.39063C31.207 7.39063 26.9453 7.29297 24.8203 8.66016M24.8203 19.7578C23.4727 18.8984 18.4336 18.6445 18.4336 18.6445C18.4336 18.6445 18.4336 9.05859 18.4336 7.39063C22.6719 7.44531 24.1328 8.30859 24.8203 8.66016M24.8203 19.7578C24.8203 18.8125 24.8203 8.66016 24.8203 8.66016" stroke="#232730" stroke-width="1.5" stroke-miterlimit="10"/>
</svg>
