<svg width="50" height="30" viewBox="0 0 50 30" fill="none" xmlns="http://www.w3.org/2000/svg">
<path d="M32.1797 16.5586C32.4961 17.1484 32.668 17.7891 32.668 18.4609C32.668 21.3828 29.3711 23.7539 25.3047 23.7539C21.2383 23.7539 17.9414 21.3828 17.9414 18.4609C17.9414 17.793 18.1133 17.1523 18.4297 16.5625" stroke="#232730" stroke-width="1.5" stroke-miterlimit="10"/>
<path d="M18.707 9.83203C19.9102 7.69141 22.4141 6.21875 25.3086 6.21875C28.1641 6.21875 30.6367 7.64844 31.8594 9.74219" stroke="#232730" stroke-width="1.5" stroke-miterlimit="10"/>
<path d="M32.961 8.22266C32.4532 9.10937 30.0079 12.3633 28.3204 12.0664C27.5196 12.4844 25.3673 14.8164 25.3673 14.8164C25.3673 14.8164 23.4688 12.4141 21.3165 11.8789C19.1641 11.3438 17.7306 8.22266 17.7306 8.22266C17.7306 8.22266 15.1602 16.4062 20.8126 18.0938C22.797 17.7148 23.9571 17.293 25.1681 16.4492C26.1681 16.7461 28.4493 18.2617 29.754 18.0938C31.0626 17.9258 34.8165 16.0273 32.961 8.22266ZM20.4181 13.6484L23.6524 15.1953C23.6524 15.1953 21.8243 17.6992 20.4181 13.6484ZM26.8243 15.1953L30.0587 13.6484C28.6524 17.6992 26.8243 15.1953 26.8243 15.1953Z" fill="#E2E6E9"/>
<path d="M25.3673 14.8125C25.3673 14.8125 23.4688 12.4102 21.3165 11.875C19.1641 11.3398 17.7306 8.22266 17.7306 8.22266C17.7306 8.22266 15.1602 16.4062 20.8126 18.0937C22.797 17.7148 23.9571 17.293 25.1681 16.4492C26.1681 16.7461 28.4493 18.2617 29.754 18.0937C31.0587 17.9258 34.8165 16.0273 32.961 8.22266C32.4532 9.10937 30.0079 12.3633 28.3204 12.0664C27.5196 12.4805 25.3673 14.8125 25.3673 14.8125Z" stroke="#232730" stroke-width="1.5" stroke-miterlimit="10"/>
<path d="M20.418 13.6484L23.6523 15.1953C23.6523 15.1953 21.8242 17.6992 20.418 13.6484Z" stroke="#232730" stroke-width="1.5" stroke-miterlimit="10"/>
<path d="M30.0586 13.6484L26.8242 15.1953C26.8242 15.1953 28.6523 17.6992 30.0586 13.6484Z" stroke="#232730" stroke-width="1.5" stroke-miterlimit="10"/>
</svg>
