<svg width="50" height="30" viewBox="0 0 50 30" fill="none" xmlns="http://www.w3.org/2000/svg">
<g clip-path="url(#clip0_1153_494)">
<path d="M33.9336 15.3203V19.082C33.9336 21.7617 31.7617 23.9336 29.082 23.9336H21.1523C18.4727 23.9336 16.3008 21.7617 16.3008 19.082V15.3203C16.3203 18.0312 18.5234 20.2227 21.2383 20.2227H29C31.7109 20.2188 33.9141 18.0312 33.9336 15.3203Z" fill="#E2E6E9"/>
<path d="M33.9336 15.3086C33.9336 15.3125 33.9336 15.3164 33.9336 15.3203C33.9141 18.0313 31.7109 20.2227 28.9961 20.2227H21.2344C18.5195 20.2227 16.3164 18.0313 16.2969 15.3203C16.2969 15.3164 16.2969 15.3125 16.2969 15.3086" stroke="#232730" stroke-width="1.5" stroke-miterlimit="10"/>
<path d="M29.0818 23.9336H21.1521C18.4724 23.9336 16.3005 21.7617 16.3005 19.082V15.3203C16.3005 14.0547 16.7966 12.8359 17.6794 11.9297L21.6443 7.87109C23.5466 5.92188 26.6833 5.92188 28.5857 7.87109L32.5505 11.9297C33.4373 12.8359 33.9294 14.0508 33.9294 15.3203V19.082C33.9334 21.7617 31.7615 23.9336 29.0818 23.9336Z" stroke="#232730" stroke-width="1.5" stroke-miterlimit="10"/>
</g>
<defs>
<clipPath id="clip0_1153_494">
<rect width="20" height="20" fill="white" transform="translate(15 5)"/>
</clipPath>
</defs>
</svg>
