<svg width="20" height="20" viewBox="0 0 20 20" fill="none" xmlns="http://www.w3.org/2000/svg">
<g clip-path="url(#clip0_1153_553)">
<path d="M18.8047 10C18.8047 12.6914 17.5977 15.1055 15.6953 16.7227C16.3398 16.1367 14.6094 15.2578 14.6094 15.2578L11.2344 13.5313C11.2344 13.5313 11.2344 13.418 11.2344 12.5391C12.5078 11.4531 13.8828 9.39844 12.6172 7.28906C11.3516 5.17969 8.10156 5.30469 7.00781 7.75391C5.91406 10.2031 8.52734 12.3945 8.52734 12.3945V13.5352C8.52734 13.5352 6.375 14.5039 5.19531 15.2656C4.01562 16.0273 4.33203 16.7656 4.33203 16.7656C2.39844 15.1445 1.17188 12.7148 1.17188 10C1.17188 5.12891 5.11719 1.18359 9.98828 1.18359C14.8594 1.18359 18.8047 5.12891 18.8047 10Z" fill="#E2E6E9"/>
<path d="M9.98828 18.8164C14.8574 18.8164 18.8047 14.8692 18.8047 10C18.8047 5.13083 14.8574 1.18359 9.98828 1.18359C5.11911 1.18359 1.17188 5.13083 1.17188 10C1.17188 14.8692 5.11911 18.8164 9.98828 18.8164Z" stroke="#232730" stroke-width="1.5" stroke-miterlimit="10"/>
<path d="M15.6484 16.7617C16.4219 16.1758 14.6133 15.2578 14.6133 15.2578L11.2383 13.5313C11.2383 13.5313 11.2383 13.418 11.2383 12.5391C12.5117 11.4531 13.8867 9.39845 12.6211 7.28908C11.3555 5.1797 8.10546 5.3047 7.01171 7.75392C5.91796 10.2031 8.53124 12.3945 8.53124 12.3945V13.5352C8.53124 13.5352 6.3789 14.5039 5.19921 15.2656C4.01953 16.0235 4.33593 16.7656 4.33593 16.7656C4.33593 16.7656 9.56249 21.3828 15.6484 16.7617Z" fill="white" stroke="#232730" stroke-width="1.5" stroke-miterlimit="10"/>
</g>
<defs>
<clipPath id="clip0_1153_553">
<rect width="20" height="20" fill="white"/>
</clipPath>
</defs>
</svg>
