<svg width="50" height="30" viewBox="0 0 50 30" fill="none" xmlns="http://www.w3.org/2000/svg">
<path d="M28.8984 11.7852H20.9688C18.293 11.7852 16.125 13.9531 16.125 16.6289V18.8047C16.125 21.4805 18.293 23.6484 20.9688 23.6484H28.8984C31.5742 23.6484 33.7422 21.4805 33.7422 18.8047V16.6289C33.7422 13.9531 31.5742 11.7852 28.8984 11.7852ZM31.7617 17.6445C31.7617 19.0742 30.6016 20.2344 29.1719 20.2344H20.7734C19.3438 20.2344 18.1836 19.0742 18.1836 17.6445V16.3477C18.1836 14.918 19.3438 13.7578 20.7734 13.7578H29.168C30.5977 13.7578 31.7578 14.918 31.7578 16.3477V17.6445H31.7617Z" fill="#E2E6E9"/>
<path d="M20.9688 11.7852H21.7227C21.7227 11.7852 25.0117 9.76173 28.1445 11.7852H28.8945C31.5703 11.7852 33.7383 13.9531 33.7383 16.6289V18.8086C33.7383 21.4844 31.5703 23.6524 28.8945 23.6524H20.9648C18.2891 23.6524 16.1211 21.4844 16.1211 18.8086V16.6289C16.125 13.9531 18.293 11.7852 20.9688 11.7852Z" stroke="#232730" stroke-width="1.5" stroke-miterlimit="10"/>
<path d="M29.168 20.2383H20.7734C19.3438 20.2383 18.1836 19.0781 18.1836 17.6484V16.3516C18.1836 14.9219 19.3438 13.7617 20.7734 13.7617H29.168C30.5977 13.7617 31.7578 14.9219 31.7578 16.3516V17.6484C31.7617 19.0781 30.6016 20.2383 29.168 20.2383Z" stroke="#232730" stroke-width="1.5" stroke-miterlimit="10"/>
<path d="M21.7227 11.7851H28.1445C28.1445 11.7851 25.4258 9.73046 21.7227 11.7851Z" fill="#232730" stroke="#232730" stroke-width="1.5" stroke-miterlimit="10"/>
<path d="M28.4414 7.78125C28.8988 7.78125 29.2695 7.41049 29.2695 6.95313C29.2695 6.49576 28.8988 6.125 28.4414 6.125C27.984 6.125 27.6133 6.49576 27.6133 6.95313C27.6133 7.41049 27.984 7.78125 28.4414 7.78125Z" fill="#232730"/>
<path d="M21.7227 7.78125C22.18 7.78125 22.5508 7.41049 22.5508 6.95313C22.5508 6.49576 22.18 6.125 21.7227 6.125C21.2653 6.125 20.8945 6.49576 20.8945 6.95313C20.8945 7.41049 21.2653 7.78125 21.7227 7.78125Z" fill="#232730"/>
<path d="M21.7227 7.78516L23.2617 11.5312H24.7656L22.3516 7.49609" fill="#232730"/>
<path d="M27.8164 7.49609L25.6094 11.4492L26.7109 11.6367L28.4414 7.78516" fill="#232730"/>
</svg>
