<svg width="22" height="22" viewBox="0 0 22 22" fill="none" xmlns="http://www.w3.org/2000/svg">
<path d="M9.19423 20.9305C9.19423 21.1699 9.09912 21.3996 8.92982 21.5689C8.76052 21.7382 8.53091 21.8333 8.29148 21.8333H1.97224C1.4934 21.8333 1.03416 21.6431 0.695566 21.3045C0.356969 20.9658 0.166748 20.5066 0.166748 20.0277V1.97218C0.166748 1.49332 0.356969 1.03407 0.695566 0.695461C1.03416 0.356854 1.4934 0.166626 1.97224 0.166626H8.29148C8.53091 0.166626 8.76052 0.26174 8.92982 0.431044C9.09912 0.600347 9.19423 0.829972 9.19423 1.0694C9.19423 1.30884 9.09912 1.53846 8.92982 1.70776C8.76052 1.87707 8.53091 1.97218 8.29148 1.97218H1.97224V20.0277H8.29148C8.53091 20.0277 8.76052 20.1228 8.92982 20.2922C9.09912 20.4615 9.19423 20.6911 9.19423 20.9305ZM21.5687 10.3612L17.0549 5.84735C16.8855 5.67796 16.6558 5.58279 16.4162 5.58279C16.1767 5.58279 15.9469 5.67796 15.7775 5.84735C15.6081 6.01675 15.513 6.24651 15.513 6.48607C15.513 6.72563 15.6081 6.95539 15.7775 7.12479L18.7509 10.0972H8.29148C8.05206 10.0972 7.82244 10.1923 7.65314 10.3616C7.48384 10.5309 7.38873 10.7605 7.38873 11C7.38873 11.2394 7.48384 11.469 7.65314 11.6383C7.82244 11.8076 8.05206 11.9027 8.29148 11.9027H18.7509L15.7775 14.8751C15.6081 15.0445 15.513 15.2743 15.513 15.5138C15.513 15.7534 15.6081 15.9832 15.7775 16.1526C15.9469 16.322 16.1767 16.4171 16.4162 16.4171C16.6558 16.4171 16.8855 16.322 17.0549 16.1526L21.5687 11.6387C21.6526 11.5548 21.7192 11.4553 21.7646 11.3457C21.81 11.2361 21.8334 11.1186 21.8334 11C21.8334 10.8813 21.81 10.7638 21.7646 10.6542C21.7192 10.5447 21.6526 10.4451 21.5687 10.3612Z" fill="white"/>
</svg>
