<svg width="24" height="24" viewBox="0 0 24 24" fill="none" xmlns="http://www.w3.org/2000/svg">
<path d="M9.5 10C11.433 10 13 8.433 13 6.5C13 4.567 11.433 3 9.5 3C7.567 3 6 4.567 6 6.5C6 8.433 7.567 10 9.5 10Z" stroke="#001A34" stroke-opacity="0.6" stroke-width="2" stroke-linecap="round" stroke-linejoin="round"/>
<path d="M14.5 21C16.433 21 18 19.433 18 17.5C18 15.567 16.433 14 14.5 14C12.567 14 11 15.567 11 17.5C11 19.433 12.567 21 14.5 21Z" stroke="#001A34" stroke-opacity="0.6" stroke-width="2" stroke-linecap="round" stroke-linejoin="round"/>
<path d="M21 17.5H18" stroke="#001A34" stroke-opacity="0.6" stroke-width="2" stroke-linecap="round" stroke-linejoin="round"/>
<path d="M11 17.5H3" stroke="#001A34" stroke-opacity="0.6" stroke-width="2" stroke-linecap="round" stroke-linejoin="round"/>
<path d="M21 6.5H13" stroke="#001A34" stroke-opacity="0.6" stroke-width="2" stroke-linecap="round" stroke-linejoin="round"/>
<path d="M6 6.5H3" stroke="#001A34" stroke-opacity="0.6" stroke-width="2" stroke-linecap="round" stroke-linejoin="round"/>
</svg>
