<svg width="68" height="106" viewBox="0 0 68 106" fill="none" xmlns="http://www.w3.org/2000/svg">
<rect width="68" height="5" fill="#999999"/>
<rect y="6.75" width="5" height="1.5" fill="#999999"/>
<rect y="9.75" width="5" height="1.5" fill="#999999"/>
<rect y="12.75" width="5" height="1.5" fill="#999999"/>
<rect y="15.75" width="5" height="1.5" fill="#999999"/>
<rect y="18.75" width="5" height="1.5" fill="#999999"/>
<rect x="63" y="6.75" width="5" height="1.5" fill="#999999"/>
<rect x="63" y="9.75" width="5" height="1.5" fill="#999999"/>
<rect x="63" y="12.75" width="5" height="1.5" fill="#999999"/>
<rect x="63" y="15.75" width="5" height="1.5" fill="#999999"/>
<rect x="63" y="18.75" width="5" height="1.5" fill="#999999"/>
<rect x="2.5" y="24.5" width="63" height="57" stroke="#999999" stroke-width="5"/>
<rect y="85.75" width="5" height="1.5" fill="#999999"/>
<rect y="88.75" width="5" height="1.5" fill="#999999"/>
<rect y="91.75" width="5" height="1.5" fill="#999999"/>
<rect y="94.75" width="5" height="1.5" fill="#999999"/>
<rect y="97.75" width="5" height="1.5" fill="#999999"/>
<rect x="63" y="85.75" width="5" height="1.5" fill="#999999"/>
<rect x="63" y="88.75" width="5" height="1.5" fill="#999999"/>
<rect x="63" y="91.75" width="5" height="1.5" fill="#999999"/>
<rect x="63" y="94.75" width="5" height="1.5" fill="#999999"/>
<rect x="63" y="97.75" width="5" height="1.5" fill="#999999"/>
<rect y="101" width="68" height="5" fill="#999999"/>
</svg>
