<svg width="20" height="20" viewBox="0 0 20 20" fill="none" xmlns="http://www.w3.org/2000/svg">
<g clip-path="url(#clip0_869_489)">
<path d="M0 18.9454C0.128906 18.772 0.226953 18.5544 0.395312 18.4388C0.552734 18.3306 0.783984 18.2892 0.983203 18.2888C4.86094 18.2806 8.73906 18.2825 12.6172 18.2825C14.7188 18.2825 16.8207 18.2911 18.9219 18.2767C19.4445 18.2732 19.816 18.4396 20.0004 18.9454C20.0004 19.0626 20.0004 19.1798 20.0004 19.297C19.8891 19.4579 19.8039 19.6513 19.6582 19.7712C19.5184 19.8868 19.316 19.9271 19.141 20.0001C13.0344 20.0001 6.92734 20.0001 0.820703 20.0001C0.405469 19.9314 0.129297 19.6997 0.000390625 19.297C0 19.1798 0 19.0626 0 18.9454Z" fill="white"/>
<path d="M20 0.703125C20 5.58594 20 10.4688 20 15.3516C19.8215 15.8828 19.4453 16.0801 18.8949 16.0793C12.9516 16.0715 7.0082 16.0715 1.06445 16.0797C0.5375 16.0805 0.172656 15.9023 0 15.3906C0 10.4949 0 5.59883 0 0.703125C0.128906 0.300391 0.405078 0.06875 0.820312 0C6.94023 0 13.0598 0 19.1797 0C19.5938 0.0703125 19.8762 0.294141 20 0.703125ZM1.67109 1.68398C1.67109 5.93828 1.67109 10.1711 1.67109 14.402C7.22148 14.402 12.7566 14.402 18.2934 14.402C18.2934 10.1551 18.2934 5.92227 18.2934 1.68398C12.7469 1.68398 7.21602 1.68398 1.67109 1.68398Z" fill="white"/>
<path d="M5.81842 11.3522C5.82037 11.1022 5.93522 10.9038 6.10592 10.7323C6.36764 10.4694 6.63053 10.2073 6.89303 9.94521C8.80866 8.03114 10.7215 6.11513 12.6438 4.2081C12.7938 4.05966 12.9958 3.92919 13.1965 3.87411C13.5407 3.77958 13.8852 3.9706 14.0669 4.28583C14.2465 4.59833 14.2145 4.94091 13.977 5.22919C13.9356 5.27919 13.8911 5.32685 13.845 5.37294C11.6821 7.53661 9.51881 9.69989 7.35553 11.8628C6.9985 12.2198 6.66295 12.2991 6.30514 12.1163C5.9985 11.9589 5.81451 11.6706 5.81842 11.3522Z" fill="white"/>
<path d="M13.0422 11.0594C13.0422 10.4898 13.0398 9.94491 13.0438 9.39998C13.0445 9.27772 13.0508 9.15116 13.0836 9.03436C13.1969 8.6328 13.5754 8.39178 13.9969 8.43866C14.3898 8.48241 14.7211 8.82147 14.7266 9.22811C14.7383 10.1062 14.7414 10.9848 14.7285 11.8629C14.7211 12.3754 14.3316 12.7519 13.8094 12.7594C12.9703 12.7711 12.1309 12.7707 11.2914 12.7594C10.7746 12.7523 10.4074 12.384 10.4082 11.9094C10.4094 11.4254 10.7879 11.0652 11.3129 11.0601C11.8793 11.0551 12.4449 11.0594 13.0422 11.0594Z" fill="white"/>
<path d="M6.92061 4.98989C6.92061 5.14849 6.92061 5.28364 6.92061 5.41841C6.92061 5.8606 6.9253 6.30278 6.91866 6.74497C6.91162 7.20708 6.54678 7.57739 6.11123 7.57778C5.65928 7.57817 5.27803 7.21372 5.27334 6.74849C5.26436 5.87739 5.26475 5.00591 5.27217 4.13481C5.27608 3.66372 5.61748 3.302 6.09639 3.29302C6.97373 3.27661 7.85186 3.27661 8.72959 3.29341C9.19834 3.30239 9.53936 3.66763 9.55577 4.11802C9.57139 4.5563 9.23819 4.94653 8.76827 4.97388C8.23702 5.00474 7.70264 4.98677 7.16944 4.98989C7.09366 4.99028 7.01748 4.98989 6.92061 4.98989Z" fill="white"/>
</g>
<defs>
<clipPath id="clip0_869_489">
<rect width="20" height="20" fill="white"/>
</clipPath>
</defs>
</svg>
