<svg width="93" height="58" viewBox="0 0 93 58" fill="none" xmlns="http://www.w3.org/2000/svg">
<rect y="0.5" width="93" height="57" rx="8" fill="white"/>
<g clip-path="url(#clip0_6120_403)">
<path d="M72.0082 32.0528C71.8077 31.8503 71.6141 31.6392 71.4213 31.4282C71.1662 31.149 70.9111 30.8707 70.6552 30.5916C70.29 30.1926 69.924 29.7937 69.5589 29.394C69.1963 28.9985 68.8338 28.6022 68.4712 28.2067C68.2246 27.9379 67.9781 27.6691 67.7324 27.3994C67.7256 27.3916 67.5942 27.2555 67.5967 27.2521C67.984 26.7704 68.3543 26.2931 68.7075 25.8193C69.994 24.097 71.0425 22.4315 71.8214 20.8815C73.5421 17.4628 73.9473 14.6092 72.6625 12.9515C70.1476 9.71114 61.9636 12.0788 53.1373 18.2003C59.8939 14.0337 65.882 12.6466 67.8433 15.2037C69.2885 17.0923 68.2349 20.7204 65.4059 24.875L64.4061 23.779L64.3037 23.6653L61.7708 20.8807H57.6468L61.1992 24.7578C61.1992 24.7578 63.3832 27.1418 63.3815 27.1435L63.5641 27.3434C61.857 29.4551 59.7583 31.6332 57.3517 33.7389C56.9567 34.0853 56.5514 34.4299 56.1385 34.7719C47.1202 42.2462 37.7411 45.6037 35.1868 42.2729C34.39 41.2338 34.3533 39.664 34.9522 37.7694C33.5045 40.8969 33.2255 43.4937 34.4293 45.0437C37.4152 48.895 48.3948 44.83 58.9538 35.9687C61.4321 33.8862 63.6681 31.7263 65.6004 29.5887L69.4156 33.7372H75.5009V33.7225C75.4949 33.7053 75.204 33.6915 75.1707 33.6864C75.0564 33.67 74.9429 33.651 74.8295 33.6278C74.6034 33.5812 74.3807 33.5201 74.1623 33.4451C73.7323 33.2969 73.3177 33.0962 72.9398 32.8411C72.6011 32.6128 72.2966 32.3397 72.0091 32.0493L72.0082 32.0528Z" fill="url(#paint0_linear_6120_403)"/>
<path d="M55.3306 28.4915V33.7412H51.9019V28.4915L45.7305 20.8838H49.5849L53.6252 26.0584L57.6468 20.8838L60.3623 22.2882L55.3306 28.4915Z" fill="url(#paint1_linear_6120_403)"/>
<path d="M44.6052 31.3079H37.5073L36.3121 33.741H32.4756L39.1384 20.8828H42.9749L49.6369 33.741H45.8004L44.6052 31.3079ZM38.74 28.7999H43.3912L41.075 24.0646L38.74 28.7999Z" fill="url(#paint2_linear_6120_403)"/>
<path d="M32.2521 20.8828L27.6282 30.5601L22.9949 20.8828H17.5V20.8888C17.5 20.8897 18.0417 20.9819 18.0929 20.9965C18.2874 21.05 18.4768 21.1223 18.6577 21.2119C19.039 21.4023 19.3973 21.6858 19.6567 22.0261C19.9433 22.4035 20.1447 22.8317 20.3494 23.2573C20.6258 23.8311 20.9176 24.3963 21.2025 24.9658C21.3476 25.2553 21.4926 25.5448 21.6376 25.8335C21.8432 26.2436 22.0488 26.6545 22.2544 27.0647C22.4959 27.5463 22.7373 28.0288 22.9787 28.5104C23.2312 29.0144 23.4838 29.5176 23.7363 30.0216C23.9743 30.4972 24.2132 30.9736 24.4512 31.4492C24.6508 31.8473 24.8505 32.2453 25.0501 32.6443C25.1857 32.9148 25.3214 33.1862 25.457 33.4567C25.5039 33.5506 25.5517 33.6445 25.5986 33.7393H29.6006L36.0886 20.8828H32.2521Z" fill="url(#paint3_linear_6120_403)"/>
</g>
<defs>
<linearGradient id="paint0_linear_6120_403" x1="74.1947" y1="16.6813" x2="38.9196" y2="49.2119" gradientUnits="userSpaceOnUse">
<stop stop-color="#26A6E5"/>
<stop offset="1" stop-color="#045FF9"/>
</linearGradient>
<linearGradient id="paint1_linear_6120_403" x1="68.4532" y1="10.4552" x2="33.1773" y2="42.9858" gradientUnits="userSpaceOnUse">
<stop stop-color="#26A6E5"/>
<stop offset="1" stop-color="#045FF9"/>
</linearGradient>
<linearGradient id="paint2_linear_6120_403" x1="65.3922" y1="7.55588" x2="30.1163" y2="40.0864" gradientUnits="userSpaceOnUse">
<stop stop-color="#26A6E5"/>
<stop offset="1" stop-color="#045FF9"/>
</linearGradient>
<linearGradient id="paint3_linear_6120_403" x1="55.5055" y1="-2.74432" x2="20.2304" y2="29.7862" gradientUnits="userSpaceOnUse">
<stop stop-color="#26A6E5"/>
<stop offset="1" stop-color="#045FF9"/>
</linearGradient>
<clipPath id="clip0_6120_403">
<rect width="58" height="35" fill="white" transform="translate(17.5 11.5)"/>
</clipPath>
</defs>
</svg>
