<svg width="58" height="35" viewBox="0 0 58 35" fill="none" xmlns="http://www.w3.org/2000/svg">
<g clip-path="url(#clip0_6025_1918)">
<path d="M54 21.0002C53.7987 20.7977 54.1936 20.2113 54 20.0002C53.7439 19.721 53.257 19.2794 53 19.0002C52.6334 18.6013 52.3667 18.4 52 18.0002C51.636 17.6047 51.3641 17.3957 51 17.0002C50.7525 16.7314 50.2467 16.2699 50 16.0002C49.9932 15.9924 49.9975 16.0036 50 16.0002C50.389 15.5186 50.6454 14.4741 51 14.0002C52.2919 12.2778 53.2179 10.5503 54 9.0002C55.7279 5.58129 56.2901 2.65795 55 1.0002C52.4746 -2.24035 44.8629 0.878389 36 7.0002C42.7847 2.8334 48.0306 1.44291 50 4.0002C51.4512 5.88887 50.8407 8.84547 48 13.0002L47 12.0002L44 9.0002H40L44 13.0002C44 13.0002 46.0017 15.9985 46 16.0002C44.2859 18.112 42.4166 19.8944 40 22.0002C39.6034 22.3466 39.4147 22.6581 39 23.0002C29.9444 30.4748 20.5648 34.3312 18 31.0002C17.1999 29.9611 16.3987 27.8949 17 26.0002C15.5463 29.1279 15.7913 32.4501 17 34.0002C19.9983 37.8516 30.3973 32.862 41 24.0002C43.4886 21.9177 46.0597 20.1379 48 18.0002L52 22.0002H58C57.994 21.983 58.0334 22.0054 58 22.0002C57.8852 21.9838 57.114 22.0235 57 22.0002C56.773 21.9537 57.2193 22.0752 57 22.0002C56.5683 21.852 55.3795 21.2552 55 21.0002C54.6599 20.7719 54.2887 21.2906 54 21.0002Z" fill="url(#paint0_linear_6025_1918)"/>
<path d="M38 17V22H34V17L28 9H32L36 14L40 9L43 10L38 17Z" fill="url(#paint1_linear_6025_1918)"/>
<path d="M27 20H20L19 22H15L22 9H25L32 22H28L27 20ZM21 17H26L24 12L21 17Z" fill="url(#paint2_linear_6025_1918)"/>
<path d="M15 8.99987L10 18.9999L6 8.99987H0C0 9.00074 0.94768 8.98506 1 8.99987C0.815136 8.90926 1.19882 9.05388 1 8.99987C1.38978 9.1924 1.73491 9.65574 2 9.99987C2.29299 10.3815 2.79072 10.5695 3 10.9999C3.28253 11.5801 3.70875 12.424 4 12.9999C4.14824 13.2926 3.85176 13.708 4 13.9999C4.21015 14.4146 4.78985 14.5852 5 14.9999C5.24678 15.4869 5.75322 16.5129 6 16.9999C6.25811 17.5095 5.74189 17.4902 6 17.9999C6.24329 18.4808 6.75671 19.519 7 19.9999C7.20405 20.4024 7.79595 20.5965 8 20.9999C8.13865 21.2734 7.86135 21.7263 8 21.9999C7.95204 21.904 8.04796 22.0948 8 21.9999H12L19 8.99987H15Z" fill="url(#paint3_linear_6025_1918)"/>
</g>
<defs>
<linearGradient id="paint0_linear_6025_1918" x1="56.7017" y1="4.9734" x2="20.8453" y2="37.6124" gradientUnits="userSpaceOnUse">
<stop stop-color="#26A6E5"/>
<stop offset="1" stop-color="#045FF9"/>
</linearGradient>
<linearGradient id="paint1_linear_6025_1918" x1="51.2946" y1="-1.54426" x2="15.5908" y2="31.839" gradientUnits="userSpaceOnUse">
<stop stop-color="#26A6E5"/>
<stop offset="1" stop-color="#045FF9"/>
</linearGradient>
<linearGradient id="paint2_linear_6025_1918" x1="47.6073" y1="-4.47387" x2="12.0085" y2="27.6911" gradientUnits="userSpaceOnUse">
<stop stop-color="#26A6E5"/>
<stop offset="1" stop-color="#045FF9"/>
</linearGradient>
<linearGradient id="paint3_linear_6025_1918" x1="38.8467" y1="-15.0281" x2="3.00124" y2="18.2389" gradientUnits="userSpaceOnUse">
<stop stop-color="#26A6E5"/>
<stop offset="1" stop-color="#045FF9"/>
</linearGradient>
<clipPath id="clip0_6025_1918">
<rect width="58" height="35" fill="white"/>
</clipPath>
</defs>
</svg>
