<svg width="48" height="60" viewBox="0 0 48 60" fill="none" xmlns="http://www.w3.org/2000/svg">
<path d="M0.499995 4.10887e-06L0.5 60L47.5 56.5L47.5 3L0.499995 4.10887e-06Z" fill="#0050FF"/>
<path d="M19.9228 21.2266L28.2556 28.9533C28.3331 29.0251 28.3945 29.1103 28.4365 29.2041C28.4784 29.2979 28.5 29.3985 28.5 29.5C28.5 29.6015 28.4784 29.7021 28.4365 29.7959C28.3945 29.8897 28.3331 29.9749 28.2556 30.0467L19.9228 37.7734C19.8063 37.8816 19.6578 37.9553 19.496 37.9851C19.3343 38.015 19.1667 37.9997 19.0143 37.9411C18.862 37.8826 18.7318 37.7835 18.6402 37.6563C18.5487 37.5291 18.4999 37.3796 18.5 37.2267L18.5 21.7733C18.4999 21.6204 18.5487 21.4709 18.6402 21.3437C18.7318 21.2165 18.862 21.1174 19.0143 21.0589C19.1666 21.0003 19.3343 20.985 19.496 21.0149C19.6577 21.0447 19.8063 21.1184 19.9228 21.2266Z" fill="white"/>
</svg>
