<svg width="24" height="24" viewBox="0 0 24 24" fill="none" xmlns="http://www.w3.org/2000/svg">
<path d="M8.36152 0.646362C8.86918 0.653862 9.25543 0.862456 9.56668 1.23652C10.1939 1.99027 11.0001 2.39246 11.9826 2.39902C12.9351 2.40558 13.7306 2.03386 14.3639 1.32324C14.999 0.610269 15.4982 0.489331 16.3818 0.834331C17.5556 1.2923 18.6239 1.92746 19.5961 2.72714C20.1576 3.18933 20.325 3.78136 20.0882 4.47089C19.4282 6.39792 20.5279 8.29355 22.5206 8.66246C23.2626 8.7998 23.6793 9.22261 23.8172 9.95527C24.0731 11.3146 24.0539 12.6712 23.7979 14.0273C23.6747 14.6807 23.1825 15.1471 22.5112 15.2493C20.4482 15.5639 19.2829 17.5509 20.0147 19.5065C20.2776 20.2092 20.1154 20.8214 19.5384 21.2953C18.6051 22.0617 17.5786 22.6725 16.4615 23.1309C15.7875 23.4075 15.1321 23.235 14.6718 22.664C13.2909 20.9507 10.95 20.9798 9.61496 22.7273C9.15231 23.3329 8.5059 23.5181 7.79621 23.2462C6.59715 22.7873 5.49699 22.1578 4.49902 21.3482C3.87277 20.8406 3.71059 20.2265 4.01996 19.4826C4.6134 18.0548 4.15637 16.4821 2.90152 15.6407C2.50871 15.3773 2.0784 15.209 1.60777 15.1453C0.693243 15.021 0.271837 14.6184 0.126993 13.6992C-0.0801944 12.3862 -0.0389444 11.0756 0.223556 9.77386C0.362774 9.08246 0.848399 8.65824 1.57121 8.56168C3.65199 8.28324 4.85012 6.3098 4.13996 4.33121C3.87887 3.60417 4.0584 2.98964 4.66918 2.51433C5.62215 1.7723 6.66606 1.19292 7.79527 0.765425C7.90402 0.724175 8.01699 0.692769 8.13043 0.667925C8.21059 0.650581 8.29543 0.651987 8.36152 0.646362ZM12.0196 8.00339C9.79778 8.00433 7.99918 9.79261 8.00199 11.9976C8.00481 14.2153 9.79121 15.9998 12.0098 16.0017C14.2143 16.0035 16.0045 14.2012 16.0026 11.9821C16.0007 9.80105 14.2003 8.00246 12.0196 8.00339Z" fill="#999999"/>
</svg>
