<svg width="20" height="20" viewBox="0 0 20 20" fill="none" xmlns="http://www.w3.org/2000/svg">
<g clip-path="url(#clip0_869_486)">
<path d="M13.7891 14.9422C11.7512 16.525 9.46877 17.1223 6.94299 16.6114C4.80705 16.1793 3.10744 15.0289 1.8715 13.2391C-0.38006 9.97777 0.0195498 5.60316 2.86682 2.80121C5.95314 -0.236291 10.6574 -0.302698 13.8133 2.33051C15.527 3.76058 16.5211 5.60551 16.7289 7.8391C16.9356 10.0606 16.3074 12.0426 14.9192 13.8004C14.9699 13.8543 15.0168 13.9059 15.066 13.9551C16.4656 15.3543 17.8645 16.7543 19.2656 18.152C19.4914 18.3774 19.6258 18.6321 19.5555 18.9567C19.4969 19.2289 19.3449 19.4414 19.0668 19.5137C18.7434 19.5977 18.4278 19.5653 18.1754 19.3176C17.7293 18.8801 17.2903 18.4352 16.8485 17.993C15.8817 17.0262 14.9149 16.0594 13.9481 15.093C13.8985 15.0434 13.8465 14.9961 13.7891 14.9422ZM2.03166 8.61683C2.03322 12.2301 4.95627 15.175 8.59299 15.1786C12.2547 15.1821 15.1637 12.2379 15.1664 8.6141C15.1692 4.99066 12.2531 2.07699 8.61017 2.05082C5.00939 2.02543 2.0301 4.99886 2.03166 8.61683Z" fill="white"/>
<path d="M9.39698 7.8148C9.688 7.8148 9.95363 7.8148 10.2193 7.8148C10.5837 7.81519 10.9489 7.80581 11.313 7.81831C11.7857 7.83394 12.12 8.17925 12.1153 8.62652C12.1107 9.07456 11.7677 9.4066 11.2923 9.41128C10.7388 9.41636 10.1857 9.41246 9.63214 9.41246C9.56183 9.41246 9.49152 9.41246 9.39738 9.41246C9.39738 9.62339 9.39855 9.81675 9.39698 10.0097C9.39386 10.4781 9.41105 10.948 9.38097 11.4148C9.34425 11.9789 8.7423 12.3023 8.24308 12.046C7.94972 11.8953 7.80831 11.6453 7.80714 11.3175C7.80519 10.764 7.80597 10.2109 7.80597 9.65738C7.80597 9.58628 7.80597 9.51558 7.80597 9.42222C7.72706 9.41871 7.6587 9.41285 7.59074 9.41285C7.01144 9.41167 6.43175 9.4191 5.85245 9.40816C5.45831 9.40074 5.14542 9.10933 5.08839 8.7273C5.03331 8.35777 5.25675 7.98277 5.61573 7.86949C5.73722 7.83121 5.8712 7.81871 5.99972 7.81753C6.59152 7.81246 7.1837 7.81519 7.80597 7.81519C7.80597 7.73433 7.80597 7.66558 7.80597 7.59683C7.80753 7.01089 7.80089 6.42496 7.81417 5.83941C7.82198 5.48511 8.08761 5.18824 8.42159 5.11792C8.77003 5.04449 9.13527 5.18902 9.28409 5.50152C9.35909 5.65894 9.38917 5.84996 9.39308 6.02691C9.40519 6.61167 9.39698 7.19722 9.39698 7.8148Z" fill="white"/>
</g>
<defs>
<clipPath id="clip0_869_486">
<rect width="20" height="20" fill="white"/>
</clipPath>
</defs>
</svg>
